<?xml version="1.0" standalone="no"?>
<!DOCTYPE svg PUBLIC "-//W3C//DTD SVG 20010904//EN"
 "http://www.w3.org/TR/2001/REC-SVG-20010904/DTD/svg10.dtd">
<svg version="1.0" xmlns="http://www.w3.org/2000/svg"
 width="700.000000pt" height="700.000000pt" viewBox="0 0 700.000000 700.000000"
 preserveAspectRatio="xMidYMid meet">
<metadata>
Created by potrace 1.14, written by Peter Selinger 2001-2017
</metadata>
<g transform="translate(0.000000,700.000000) scale(0.100000,-0.100000)"
fill="#000000" stroke="none">
<path d="M3195 6990 c-449 -40 -829 -147 -1230 -345 -382 -188 -626 -364 -940
-679 -190 -191 -308 -332 -435 -521 -497 -743 -685 -1606 -544 -2503 191
-1223 1006 -2240 2159 -2695 580 -229 1206 -298 1850 -206 655 94 1256 383
1794 862 447 398 811 957 989 1517 65 203 105 394 138 655 22 173 25 613 6
780 -82 701 -325 1291 -761 1845 -104 132 -423 447 -561 554 -517 401 -1101
640 -1760 722 -141 18 -569 26 -705 14z m-934 -2195 c106 -206 195 -373 198
-369 3 3 33 171 66 372 l60 367 193 3 193 2 -6 -42 c-4 -24 -57 -344 -119
-713 l-111 -670 -156 -3 c-117 -2 -159 1 -166 10 -6 7 -95 176 -199 375 -103
200 -191 359 -195 355 -3 -4 -32 -164 -63 -357 -32 -192 -60 -358 -62 -367 -5
-16 -23 -18 -195 -18 -144 0 -189 3 -189 13 0 6 52 328 116 715 l117 702 163
0 162 0 193 -375z m1279 369 c0 -3 -20 -126 -45 -274 -25 -148 -45 -271 -45
-274 0 -3 115 -6 255 -6 140 0 255 3 255 6 0 3 20 126 45 274 25 148 45 271
45 274 0 3 86 6 190 6 182 0 190 -1 190 -20 0 -18 -213 -1321 -226 -1382 l-6
-28 -189 0 -189 0 0 23 c0 12 20 138 44 280 l43 257 -256 -2 -255 -3 -46 -275
-46 -275 -192 -3 c-106 -1 -192 0 -192 3 0 13 231 1402 235 1413 3 9 52 12
195 12 104 0 190 -3 190 -6z m1460 -16 c0 -13 -40 -261 -89 -553 l-88 -530
284 -3 283 -2 -1 -28 c0 -15 -10 -85 -22 -157 l-23 -130 -477 -3 -477 -2 0 21
c0 19 212 1317 226 1382 l6 27 189 0 189 0 0 -22z m374 -1728 c210 -54 358
-204 402 -409 40 -189 -6 -457 -109 -641 -54 -96 -178 -223 -272 -278 -192
-112 -442 -139 -645 -68 -229 79 -360 276 -360 540 0 156 38 323 102 450 107
213 297 362 523 411 95 21 268 19 359 -5z m-3700 -677 c-62 -373 -116 -693
-119 -710 l-6 -33 -189 0 c-154 0 -190 3 -190 14 0 14 215 1328 226 1379 l6
27 192 0 193 0 -113 -677z m732 470 c269 -523 277 -538 285 -517 4 10 33 178
65 372 l57 352 193 0 194 0 -6 -27 c-3 -16 -56 -334 -118 -708 l-113 -680
-161 -3 -160 -2 -194 375 c-106 206 -195 375 -198 375 -3 0 -29 -143 -59 -318
-29 -174 -58 -343 -63 -374 l-10 -58 -189 0 c-178 0 -189 1 -189 19 0 18 215
1334 225 1379 5 22 8 22 169 22 l165 0 107 -207z m1974 205 c0 -2 -11 -68 -25
-148 -14 -80 -25 -148 -25 -152 0 -5 -139 -8 -308 -8 l-308 0 -17 -107 c-10
-60 -17 -114 -17 -120 0 -10 62 -13 276 -13 257 0 275 -1 270 -17 -2 -10 -15
-80 -27 -155 l-22 -138 -277 0 -277 0 -42 -262 c-23 -145 -44 -271 -47 -280
-5 -16 -23 -18 -195 -18 -163 0 -189 2 -189 15 0 9 52 326 115 705 63 379 115
692 115 695 0 3 225 5 500 5 275 0 500 -1 500 -2z"/>
<path d="M5097 3099 c-162 -38 -269 -185 -308 -423 -25 -160 6 -275 89 -324
41 -24 57 -27 132 -27 73 0 93 4 141 28 146 71 241 261 243 487 1 108 -12 155
-56 206 -48 54 -145 76 -241 53z"/>
</g>
</svg>
