<?xml version="1.0" encoding="UTF-8"?>
<svg id="Layer_2" data-name="Layer 2" xmlns="http://www.w3.org/2000/svg" width="610" height="330" viewBox="0 0 610 330">
  <defs>
    <style>
      .cls-1 {
        fill: #fff;
      }

      .cls-1, .cls-2 {
        stroke-width: 0px;
      }

      .cls-2 {
        fill: #005eb8;
      }
    </style>
  </defs>
  <g id="Layer_1-2" data-name="Layer 1">
    <g>
      <rect class="cls-2" width="610" height="330"/>
      <g>
        <path class="cls-1" d="M274.04,59.96l-14.4,93.85h-19.65l-23.72-49.31h-.51l-7.62,49.31h-23.55l14.4-93.85h19.99l23.38,49.12h.68l7.45-49.12h23.55Z"/>
        <path class="cls-1" d="M270.83,153.81l14.4-93.85h23.55l-5.59,36.66h31.17l5.59-36.66h23.55l-14.4,93.85h-23.55l5.59-36.66h-31.17l-5.59,36.66h-23.55Z"/>
        <path class="cls-1" d="M360.28,153.81l14.4-93.85h23.55l-11.18,73.32h35.07l-3.22,20.53h-58.62Z"/>
        <path class="cls-1" d="M201.71,174.91l-14.4,93.85h-23.55l14.4-93.85h23.55Z"/>
        <path class="cls-1" d="M287.94,174.91l-14.4,93.85h-19.65l-23.72-49.31h-.51l-7.62,49.31h-23.55l14.4-93.85h19.99l23.38,49.12h.68l7.45-49.12h23.55Z"/>
        <path class="cls-1" d="M284.72,268.76l14.4-93.85h60.99l-3.22,20.53h-37.44l-2.37,16.13h33.71l-3.22,20.53h-33.71l-5.59,36.66h-23.55Z"/>
        <path class="cls-1" d="M445.32,223.48c-1.58,10.2-4.72,18.76-9.4,25.66-4.69,6.9-10.38,12.11-17.07,15.63-6.69,3.51-13.85,5.27-21.47,5.27-8.13,0-15.19-1.91-21.18-5.73-5.99-3.82-10.35-9.41-13.09-16.77-2.74-7.36-3.29-16.36-1.65-26.99,1.52-10.2,4.63-18.79,9.32-25.75,4.69-6.96,10.4-12.24,17.15-15.81,6.75-3.57,13.96-5.36,21.64-5.36,8.07,0,15.1,1.93,21.07,5.77,5.97,3.85,10.32,9.49,13.04,16.91s3.27,16.48,1.63,27.17ZM421.6,220.55c.79-5.38.85-9.91.17-13.59-.68-3.68-2.1-6.46-4.28-8.34-2.17-1.88-5.1-2.82-8.77-2.82-4.18,0-7.88,1.1-11.1,3.3-3.22,2.2-5.89,5.36-8.01,9.49-2.12,4.12-3.6,9.09-4.45,14.89-.9,5.44-.98,9.96-.23,13.56.75,3.61,2.24,6.31,4.49,8.11,2.24,1.8,5.17,2.7,8.79,2.7,4.12,0,7.77-1.07,10.95-3.21,3.18-2.14,5.82-5.24,7.92-9.3,2.1-4.06,3.61-9,4.51-14.8Z"/>
      </g>
    </g>
  </g>
</svg>