<?xml version="1.0" encoding="UTF-8"?>
<svg id="Layer_2" data-name="Layer 2" xmlns="http://www.w3.org/2000/svg" width="426.49" height="426.03" viewBox="0 0 426.49 426.03">
  <defs>
    <style>
      .cls-1 {
        fill: none;
        stroke: #df8300;
        stroke-miterlimit: 10;
        stroke-width: 6px;
      }

      .cls-2 {
        fill: #fff;
      }

      .cls-2, .cls-3 {
        stroke-width: 0px;
      }

      .cls-3 {
        fill: #005eb8;
      }
    </style>
  </defs>
  <g id="Layer_1-2" data-name="Layer 1">
    <g>
      <path class="cls-3" d="M199.28.36c144.08-8.01,252.9,120.59,221.91,261.66-17.64,80.3-88.46,147.55-169.63,160.92C114.05,445.58-6.11,341.32.24,201.57,5.08,95.01,92.73,6.28,199.28.36Z"/>
      <g>
        <path class="cls-2" d="M181.04,111.6l-14.37,86.55h-19.61l-23.67-45.47h-.51l-7.61,45.47h-23.5l14.37-86.55h19.95l23.33,45.3h.68l7.44-45.3h23.5Z"/>
        <path class="cls-2" d="M177.83,198.14l14.37-86.55h23.5l-5.58,33.81h31.1l5.58-33.81h23.5l-14.37,86.55h-23.5l5.58-33.81h-31.1l-5.58,33.81h-23.5Z"/>
        <path class="cls-2" d="M267.08,198.14l14.37-86.55h23.5l-11.16,67.61h34.99l-3.21,18.93h-58.49Z"/>
        <path class="cls-2" d="M108.87,217.6l-14.37,86.54h-23.5l14.37-86.54h23.5Z"/>
        <path class="cls-2" d="M194.9,217.6l-14.37,86.54h-19.61l-23.67-45.47h-.51l-7.61,45.47h-23.5l14.37-86.54h19.95l23.33,45.3h.68l7.44-45.3h23.5Z"/>
        <path class="cls-2" d="M191.69,304.14l14.37-86.54h60.85l-3.21,18.93h-37.36l-2.37,14.88h33.64l-3.21,18.93h-33.64l-5.58,33.81h-23.5Z"/>
        <path class="cls-2" d="M351.94,262.39c-1.58,9.41-4.71,17.3-9.38,23.66-4.68,6.37-10.35,11.17-17.03,14.41-6.68,3.24-13.82,4.86-21.42,4.86-8.11,0-15.16-1.76-21.13-5.28-5.97-3.52-10.33-8.68-13.06-15.47-2.73-6.79-3.28-15.09-1.65-24.89,1.52-9.41,4.62-17.33,9.3-23.75,4.68-6.42,10.38-11.28,17.11-14.58s13.93-4.94,21.59-4.94c8.06,0,15.06,1.78,21.02,5.32,5.96,3.55,10.3,8.75,13.02,15.59s3.26,15.2,1.63,25.06ZM328.27,259.69c.79-4.96.85-9.13.17-12.53-.68-3.39-2.1-5.96-4.27-7.69-2.17-1.73-5.09-2.6-8.75-2.6-4.17,0-7.86,1.01-11.07,3.04-3.21,2.03-5.87,4.94-7.99,8.75-2.11,3.8-3.59,8.38-4.44,13.73-.9,5.01-.98,9.18-.23,12.51.75,3.33,2.24,5.82,4.48,7.48,2.24,1.66,5.16,2.49,8.77,2.49,4.11,0,7.75-.99,10.92-2.96,3.17-1.97,5.8-4.83,7.9-8.58,2.1-3.75,3.6-8.3,4.5-13.65Z"/>
      </g>
      <circle class="cls-1" cx="213.24" cy="213.02" r="188.77"/>
    </g>
  </g>
</svg>